<mxfile host="app.diagrams.net" agent="Mozilla/5.0 (Windows NT 10.0; Win64; x64) AppleWebKit/537.36 (KHTML, like Gecko) Chrome/133.0.0.0 Safari/537.36" version="25.0.3">
  <diagram name="Page-1" id="EwDSyEZGGgDqbSZuS_xc">
    <mxGraphModel dx="2240" dy="936" grid="1" gridSize="10" guides="1" tooltips="1" connect="1" arrows="1" fold="1" page="1" pageScale="1" pageWidth="827" pageHeight="1169" math="0" shadow="0">
      <root>
        <mxCell id="0" />
        <mxCell id="1" parent="0" />
        <mxCell id="vEpVN9u3sCHCTO4Hcyxu-67" value="" style="edgeStyle=orthogonalEdgeStyle;rounded=0;orthogonalLoop=1;jettySize=auto;html=1;" edge="1" parent="1" source="vEpVN9u3sCHCTO4Hcyxu-1" target="vEpVN9u3sCHCTO4Hcyxu-20">
          <mxGeometry relative="1" as="geometry" />
        </mxCell>
        <mxCell id="vEpVN9u3sCHCTO4Hcyxu-1" value="&lt;span id=&quot;docs-internal-guid-e16b6b70-7fff-cc1a-5da8-0003bd884dc2&quot;&gt;&lt;span style=&quot;font-size: 11pt; font-family: Calibri, sans-serif; color: rgb(24, 128, 56); background-color: transparent; font-variant-numeric: normal; font-variant-east-asian: normal; font-variant-alternates: normal; font-variant-position: normal; font-variant-emoji: normal; vertical-align: baseline; white-space-collapse: preserve;&quot;&gt;User Device&amp;lt;br/&amp;gt;(Mobile/Browser)&lt;/span&gt;&lt;/span&gt;" style="rounded=1;whiteSpace=wrap;html=1;" vertex="1" parent="1">
          <mxGeometry x="70" y="80" width="170" height="90" as="geometry" />
        </mxCell>
        <mxCell id="vEpVN9u3sCHCTO4Hcyxu-63" value="" style="edgeStyle=orthogonalEdgeStyle;rounded=0;orthogonalLoop=1;jettySize=auto;html=1;" edge="1" parent="1" source="vEpVN9u3sCHCTO4Hcyxu-2">
          <mxGeometry relative="1" as="geometry">
            <mxPoint x="155" y="400" as="targetPoint" />
          </mxGeometry>
        </mxCell>
        <mxCell id="vEpVN9u3sCHCTO4Hcyxu-2" value="&lt;span id=&quot;docs-internal-guid-b971a49f-7fff-167c-4c0f-e048c67fde68&quot;&gt;&lt;span style=&quot;font-size: 11pt; font-family: Calibri, sans-serif; color: rgb(24, 128, 56); background-color: transparent; font-variant-numeric: normal; font-variant-east-asian: normal; font-variant-alternates: normal; font-variant-position: normal; font-variant-emoji: normal; vertical-align: baseline; white-space-collapse: preserve;&quot;&gt;Frontend&amp;lt;br/&amp;gt;(React.js)&lt;/span&gt;&lt;/span&gt;" style="rounded=0;whiteSpace=wrap;html=1;" vertex="1" parent="1">
          <mxGeometry x="70" y="240" width="170" height="90" as="geometry" />
        </mxCell>
        <mxCell id="vEpVN9u3sCHCTO4Hcyxu-48" style="edgeStyle=orthogonalEdgeStyle;rounded=0;orthogonalLoop=1;jettySize=auto;html=1;entryX=0.5;entryY=0;entryDx=0;entryDy=0;exitX=1;exitY=0.75;exitDx=0;exitDy=0;" edge="1" parent="1" source="vEpVN9u3sCHCTO4Hcyxu-3" target="vEpVN9u3sCHCTO4Hcyxu-29">
          <mxGeometry relative="1" as="geometry">
            <mxPoint x="260" y="460" as="sourcePoint" />
            <mxPoint x="425" y="600" as="targetPoint" />
          </mxGeometry>
        </mxCell>
        <mxCell id="vEpVN9u3sCHCTO4Hcyxu-50" style="edgeStyle=orthogonalEdgeStyle;rounded=0;orthogonalLoop=1;jettySize=auto;html=1;entryX=0;entryY=0.5;entryDx=0;entryDy=0;" edge="1" parent="1" target="vEpVN9u3sCHCTO4Hcyxu-5">
          <mxGeometry relative="1" as="geometry">
            <mxPoint x="50" y="900" as="targetPoint" />
            <mxPoint x="140" y="470" as="sourcePoint" />
            <Array as="points">
              <mxPoint x="40" y="470" />
              <mxPoint x="40" y="880" />
            </Array>
          </mxGeometry>
        </mxCell>
        <mxCell id="vEpVN9u3sCHCTO4Hcyxu-3" value="&lt;span id=&quot;docs-internal-guid-9e4d9953-7fff-5d1c-88fb-8ec13bdc7b56&quot;&gt;&lt;span style=&quot;font-size: 11pt; font-family: Calibri, sans-serif; color: rgb(24, 128, 56); background-color: transparent; font-variant-numeric: normal; font-variant-east-asian: normal; font-variant-alternates: normal; font-variant-position: normal; font-variant-emoji: normal; vertical-align: baseline; white-space-collapse: preserve;&quot;&gt;API Layer&amp;lt;br/&amp;gt;(Flask/Python)&lt;/span&gt;&lt;/span&gt;" style="rounded=0;whiteSpace=wrap;html=1;" vertex="1" parent="1">
          <mxGeometry x="70" y="400" width="180" height="100" as="geometry" />
        </mxCell>
        <mxCell id="vEpVN9u3sCHCTO4Hcyxu-5" value="&lt;span id=&quot;docs-internal-guid-2a9b1573-7fff-8573-6287-ae7ec5cc5e02&quot;&gt;&lt;span style=&quot;font-size: 11pt; font-family: Calibri, sans-serif; color: rgb(24, 128, 56); background-color: transparent; font-variant-numeric: normal; font-variant-east-asian: normal; font-variant-alternates: normal; font-variant-position: normal; font-variant-emoji: normal; vertical-align: baseline; white-space-collapse: preserve;&quot;&gt;AI/ML Module&amp;lt;br/&amp;gt;(scikit-learn/TensorFlow&lt;/span&gt;&lt;/span&gt;" style="whiteSpace=wrap;html=1;" vertex="1" parent="1">
          <mxGeometry x="90" y="830" width="170" height="100" as="geometry" />
        </mxCell>
        <mxCell id="vEpVN9u3sCHCTO4Hcyxu-7" value="&lt;span id=&quot;docs-internal-guid-4f6e9937-7fff-1ebf-003f-2aaaabd91d9c&quot;&gt;&lt;span style=&quot;font-size: 11pt; font-family: Calibri, sans-serif; color: rgb(24, 128, 56); background-color: transparent; font-variant-numeric: normal; font-variant-east-asian: normal; font-variant-alternates: normal; font-variant-position: normal; font-variant-emoji: normal; vertical-align: baseline; white-space-collapse: preserve;&quot;&gt;Payment Integration&amp;lt;br/&amp;gt;(M-Pesa, Airtel Money)&lt;/span&gt;&lt;/span&gt;" style="shape=process;whiteSpace=wrap;html=1;backgroundOutline=1;" vertex="1" parent="1">
          <mxGeometry x="340" y="610" width="160" height="100" as="geometry" />
        </mxCell>
        <mxCell id="vEpVN9u3sCHCTO4Hcyxu-52" style="edgeStyle=orthogonalEdgeStyle;rounded=0;orthogonalLoop=1;jettySize=auto;html=1;entryX=0.5;entryY=0;entryDx=0;entryDy=0;exitX=1;exitY=0.592;exitDx=0;exitDy=0;exitPerimeter=0;" edge="1" parent="1" source="vEpVN9u3sCHCTO4Hcyxu-8">
          <mxGeometry relative="1" as="geometry">
            <mxPoint x="490.0000000000001" y="300.15" as="sourcePoint" />
            <mxPoint x="661.65" y="419.85" as="targetPoint" />
          </mxGeometry>
        </mxCell>
        <mxCell id="vEpVN9u3sCHCTO4Hcyxu-57" style="edgeStyle=orthogonalEdgeStyle;rounded=0;orthogonalLoop=1;jettySize=auto;html=1;exitX=0.97;exitY=0.816;exitDx=0;exitDy=0;exitPerimeter=0;" edge="1" parent="1" source="vEpVN9u3sCHCTO4Hcyxu-8">
          <mxGeometry relative="1" as="geometry">
            <mxPoint x="560" y="830" as="targetPoint" />
          </mxGeometry>
        </mxCell>
        <mxCell id="vEpVN9u3sCHCTO4Hcyxu-8" value="&lt;span id=&quot;docs-internal-guid-d3879204-7fff-b880-84f1-86c410f597cc&quot;&gt;&lt;span style=&quot;font-size: 11pt; font-family: Calibri, sans-serif; color: rgb(24, 128, 56); background-color: transparent; font-variant-numeric: normal; font-variant-east-asian: normal; font-variant-alternates: normal; font-variant-position: normal; font-variant-emoji: normal; vertical-align: baseline; white-space-collapse: preserve;&quot;&gt;External Data Integration&lt;/span&gt;&lt;/span&gt;" style="shape=cylinder3;whiteSpace=wrap;html=1;boundedLbl=1;backgroundOutline=1;size=15;" vertex="1" parent="1">
          <mxGeometry x="340" y="200" width="130" height="170" as="geometry" />
        </mxCell>
        <mxCell id="vEpVN9u3sCHCTO4Hcyxu-9" value="&lt;span id=&quot;docs-internal-guid-7b7b0106-7fff-f15d-7c38-0ff1f2fe3497&quot;&gt;&lt;span style=&quot;font-size: 11pt; font-family: Calibri, sans-serif; color: rgb(24, 128, 56); background-color: transparent; font-variant-numeric: normal; font-variant-east-asian: normal; font-variant-alternates: normal; font-variant-position: normal; font-variant-emoji: normal; vertical-align: baseline; white-space-collapse: preserve;&quot;&gt;Market Data APIs&lt;/span&gt;&lt;/span&gt;" style="rounded=1;whiteSpace=wrap;html=1;" vertex="1" parent="1">
          <mxGeometry x="570" y="80" width="190" height="90" as="geometry" />
        </mxCell>
        <mxCell id="vEpVN9u3sCHCTO4Hcyxu-12" value="&lt;span id=&quot;docs-internal-guid-50485dfa-7fff-dd38-b4c6-4cb77f43c799&quot;&gt;&lt;span style=&quot;font-size: 11pt; font-family: Calibri, sans-serif; color: rgb(24, 128, 56); background-color: transparent; font-variant-numeric: normal; font-variant-east-asian: normal; font-variant-alternates: normal; font-variant-position: normal; font-variant-emoji: normal; vertical-align: baseline; white-space-collapse: preserve;&quot;&gt;Web Scraping&amp;lt;br/&amp;gt;(BeautifulSoup/Scrapy)&lt;/span&gt;&lt;/span&gt;" style="rounded=1;whiteSpace=wrap;html=1;" vertex="1" parent="1">
          <mxGeometry x="470" y="830" width="180" height="90" as="geometry" />
        </mxCell>
        <mxCell id="vEpVN9u3sCHCTO4Hcyxu-13" value="&lt;span id=&quot;docs-internal-guid-af43da58-7fff-4bc5-4d62-8646bd134ea4&quot;&gt;&lt;span style=&quot;font-size: 11pt; font-family: Calibri, sans-serif; color: rgb(24, 128, 56); background-color: transparent; font-variant-numeric: normal; font-variant-east-asian: normal; font-variant-alternates: normal; font-variant-position: normal; font-variant-emoji: normal; vertical-align: baseline; white-space-collapse: preserve;&quot;&gt;Database&amp;lt;br/&amp;gt;(PostgreSQL)&lt;/span&gt;&lt;/span&gt;" style="rounded=1;whiteSpace=wrap;html=1;" vertex="1" parent="1">
          <mxGeometry x="70" y="605" width="180" height="100" as="geometry" />
        </mxCell>
        <mxCell id="vEpVN9u3sCHCTO4Hcyxu-14" value="&lt;span id=&quot;docs-internal-guid-f1dd0ce7-7fff-8b95-8526-686756a7d547&quot;&gt;&lt;span style=&quot;font-size: 11pt; font-family: Calibri, sans-serif; color: rgb(24, 128, 56); background-color: transparent; font-variant-numeric: normal; font-variant-east-asian: normal; font-variant-alternates: normal; font-variant-position: normal; font-variant-emoji: normal; vertical-align: baseline; white-space-collapse: preserve;&quot;&gt;Climate Data APIs&lt;/span&gt;&lt;/span&gt;" style="shape=process;whiteSpace=wrap;html=1;backgroundOutline=1;" vertex="1" parent="1">
          <mxGeometry x="590" y="420" width="180" height="90" as="geometry" />
        </mxCell>
        <mxCell id="vEpVN9u3sCHCTO4Hcyxu-18" value="A" style="text;html=1;align=center;verticalAlign=middle;whiteSpace=wrap;rounded=0;" vertex="1" parent="1">
          <mxGeometry x="125" y="80" width="60" height="30" as="geometry" />
        </mxCell>
        <mxCell id="vEpVN9u3sCHCTO4Hcyxu-51" style="edgeStyle=orthogonalEdgeStyle;rounded=0;orthogonalLoop=1;jettySize=auto;html=1;entryX=0.5;entryY=1;entryDx=0;entryDy=0;exitX=1;exitY=0.412;exitDx=0;exitDy=0;exitPerimeter=0;" edge="1" parent="1" source="vEpVN9u3sCHCTO4Hcyxu-8" target="vEpVN9u3sCHCTO4Hcyxu-9">
          <mxGeometry relative="1" as="geometry">
            <mxPoint x="500" y="255" as="sourcePoint" />
          </mxGeometry>
        </mxCell>
        <mxCell id="vEpVN9u3sCHCTO4Hcyxu-19" value="G" style="text;html=1;align=center;verticalAlign=middle;whiteSpace=wrap;rounded=0;" vertex="1" parent="1">
          <mxGeometry x="380" y="240" width="60" height="30" as="geometry" />
        </mxCell>
        <mxCell id="vEpVN9u3sCHCTO4Hcyxu-20" value="B" style="text;html=1;align=center;verticalAlign=middle;whiteSpace=wrap;rounded=0;" vertex="1" parent="1">
          <mxGeometry x="125" y="240" width="60" height="30" as="geometry" />
        </mxCell>
        <mxCell id="vEpVN9u3sCHCTO4Hcyxu-21" value="C" style="text;html=1;align=center;verticalAlign=middle;whiteSpace=wrap;rounded=0;" vertex="1" parent="1">
          <mxGeometry x="125" y="420" width="60" height="30" as="geometry" />
        </mxCell>
        <mxCell id="vEpVN9u3sCHCTO4Hcyxu-22" value="D" style="text;html=1;align=center;verticalAlign=middle;whiteSpace=wrap;rounded=0;" vertex="1" parent="1">
          <mxGeometry x="130" y="630" width="60" height="30" as="geometry" />
        </mxCell>
        <mxCell id="vEpVN9u3sCHCTO4Hcyxu-23" value="E" style="text;html=1;align=center;verticalAlign=middle;whiteSpace=wrap;rounded=0;" vertex="1" parent="1">
          <mxGeometry x="140" y="840" width="60" height="30" as="geometry" />
        </mxCell>
        <mxCell id="vEpVN9u3sCHCTO4Hcyxu-29" value="F" style="text;html=1;align=center;verticalAlign=middle;whiteSpace=wrap;rounded=0;" vertex="1" parent="1">
          <mxGeometry x="385" y="610" width="60" height="30" as="geometry" />
        </mxCell>
        <mxCell id="vEpVN9u3sCHCTO4Hcyxu-32" value="I" style="text;html=1;align=center;verticalAlign=middle;whiteSpace=wrap;rounded=0;" vertex="1" parent="1">
          <mxGeometry x="640" y="430" width="60" height="30" as="geometry" />
        </mxCell>
        <mxCell id="vEpVN9u3sCHCTO4Hcyxu-33" value="J" style="text;html=1;align=center;verticalAlign=middle;whiteSpace=wrap;rounded=0;" vertex="1" parent="1">
          <mxGeometry x="530" y="835" width="60" height="30" as="geometry" />
        </mxCell>
        <mxCell id="vEpVN9u3sCHCTO4Hcyxu-49" style="edgeStyle=orthogonalEdgeStyle;rounded=0;orthogonalLoop=1;jettySize=auto;html=1;entryX=0.5;entryY=1;entryDx=0;entryDy=0;entryPerimeter=0;exitX=1;exitY=0.25;exitDx=0;exitDy=0;" edge="1" parent="1" source="vEpVN9u3sCHCTO4Hcyxu-3" target="vEpVN9u3sCHCTO4Hcyxu-8">
          <mxGeometry relative="1" as="geometry" />
        </mxCell>
        <mxCell id="vEpVN9u3sCHCTO4Hcyxu-56" value="H" style="text;html=1;align=center;verticalAlign=middle;whiteSpace=wrap;rounded=0;" vertex="1" parent="1">
          <mxGeometry x="630" y="90" width="60" height="30" as="geometry" />
        </mxCell>
        <mxCell id="vEpVN9u3sCHCTO4Hcyxu-64" style="edgeStyle=orthogonalEdgeStyle;rounded=0;orthogonalLoop=1;jettySize=auto;html=1;entryX=0.444;entryY=0.037;entryDx=0;entryDy=0;entryPerimeter=0;" edge="1" parent="1" target="vEpVN9u3sCHCTO4Hcyxu-13">
          <mxGeometry relative="1" as="geometry">
            <mxPoint x="150" y="500" as="sourcePoint" />
          </mxGeometry>
        </mxCell>
        <mxCell id="vEpVN9u3sCHCTO4Hcyxu-70" value="&lt;h1 style=&quot;margin-top: 0px;&quot;&gt;GAINE AFRICA ARCHITECTURE&lt;/h1&gt;" style="text;html=1;whiteSpace=wrap;overflow=hidden;rounded=0;" vertex="1" parent="1">
          <mxGeometry x="230" y="20" width="390" height="50" as="geometry" />
        </mxCell>
      </root>
    </mxGraphModel>
  </diagram>
</mxfile>
